<svg width="16" height="16" viewBox="0 0 16 16" fill="none" xmlns="http://www.w3.org/2000/svg">
<g clip-path="url(#clip0_365_643)">
<g clip-path="url(#clip1_365_643)">
<path d="M6.7 -0.0571594H5.1L0 4.77235V6.28382L6.7 -0.0571594Z" fill="#111000"/>
<path d="M0 2.3324V3.84387L4.12222 -0.0571594H2.52222L0 2.3324Z" fill="#111000"/>
<path d="M15.9997 4.26134L11.0664 8.9325L11.8664 9.68824L15.9997 5.77281V4.26134Z" fill="#111000"/>
<path d="M15.9996 3.34005V1.82138L9.77734 7.70892L10.5773 8.47185L15.9996 3.34005Z" fill="#111000"/>
<path d="M9.28828 7.24828L15.9994 0.900105V-0.0571594H15.4105L8.48828 6.49255L9.28828 7.24828Z" fill="#111000"/>
<path d="M1.54444 -0.0571594H0V1.40393L1.54444 -0.0571594Z" fill="#111000"/>
<path d="M3.19444 10.5663L7.99444 6.02471L8 6.03191L14.4333 -0.0571594H12.8333L0 12.085V15.9428H3.19444V10.5663Z" fill="#111000"/>
<path d="M12.3555 10.1489L12.7888 10.5663V15.9428H15.9999V6.70128L12.3555 10.1489Z" fill="#111000"/>
<path d="M9.27778 -0.0571594H7.67778L0 7.2051V8.72377L9.27778 -0.0571594Z" fill="#111000"/>
<path d="M11.8556 -0.0571594H10.2556L0 9.64505V11.1637L11.8556 -0.0571594Z" fill="#111000"/>
</g>
</g>
<defs>
<clipPath id="clip0_365_643">
<rect width="16" height="16" fill="white"/>
</clipPath>
<clipPath id="clip1_365_643">
<rect width="16" height="16" fill="white" transform="translate(0 -0.0571594)"/>
</clipPath>
</defs>
</svg>
