<svg width="70" height="70" viewBox="0 0 70 70" fill="none" xmlns="http://www.w3.org/2000/svg">
<mask id="mask0_96_714" style="mask-type:alpha" maskUnits="userSpaceOnUse" x="0" y="0" width="70" height="70">
<rect width="70" height="70" fill="#D9D9D9"/>
</mask>
<g mask="url(#mask0_96_714)">
<path d="M34.1311 58.1646C34.5122 58.1646 34.9028 58.0786 35.3028 57.9065C35.7029 57.7349 36.0264 57.5257 36.2734 57.2787L59.0124 34.5396C59.745 33.8071 60.3106 33.0575 60.7092 32.2909C61.1073 31.5243 61.3064 30.6828 61.3064 29.7665C61.3064 28.839 61.1073 27.9387 60.7092 27.0657C60.3106 26.1926 59.745 25.3952 59.0124 24.6733L48.0749 13.7358C47.353 13.0032 46.6117 12.4658 45.851 12.1236C45.0897 11.7814 44.2456 11.6103 43.3186 11.6103C42.4022 11.6103 41.5516 11.7814 40.7665 12.1236C39.9809 12.4658 39.2406 13.0032 38.5454 13.7358L36.0043 16.2769L41.4001 21.6895C41.9796 22.2578 42.4115 22.9048 42.6959 23.6306C42.9797 24.3559 43.1217 25.0923 43.1217 25.84C43.1217 27.3586 42.6254 28.6142 41.6327 29.6068C40.6401 30.5995 39.3847 31.0958 37.8666 31.0958C37.1185 31.0958 36.3883 30.9818 35.6762 30.7538C34.964 30.5258 34.3236 30.1275 33.7548 29.5587L28.1738 23.9952L15.5818 36.5871C15.2867 36.8827 15.0653 37.2184 14.9175 37.5941C14.7697 37.9699 14.6959 38.3483 14.6959 38.7294C14.6959 39.4178 14.9165 39.9853 15.3579 40.432C15.7988 40.8788 16.3635 41.1021 17.0518 41.1021C17.4329 41.1021 17.8235 41.0161 18.2236 40.844C18.6236 40.6724 18.9471 40.4632 19.1941 40.2162L28.4377 30.9726L30.502 33.0368L21.2751 42.2805C20.9796 42.5756 20.7579 42.911 20.6101 43.2867C20.4628 43.6625 20.3892 44.0412 20.3892 44.4228C20.3892 45.0737 20.6191 45.6291 21.079 46.0889C21.5388 46.5488 22.094 46.7787 22.7444 46.7787C23.126 46.7787 23.5168 46.6927 23.9169 46.5206C24.317 46.3485 24.6405 46.139 24.8874 45.892L34.8041 35.9929L36.8684 38.0564L26.9685 47.9731C26.7103 48.22 26.4981 48.5435 26.3319 48.9436C26.1652 49.3437 26.0818 49.7345 26.0818 50.1161C26.0818 50.7665 26.3117 51.3217 26.7716 51.7815C27.2319 52.2419 27.7873 52.472 28.4377 52.472C28.8193 52.472 29.198 52.3982 29.5738 52.2504C29.9495 52.1026 30.285 51.8809 30.58 51.5854L40.4967 41.6855L42.561 43.7497L32.6443 53.6664C32.3492 53.962 32.1278 54.3163 31.98 54.7295C31.8322 55.1427 31.7584 55.5212 31.7584 55.8649C31.7584 56.5532 32.0004 57.1086 32.4846 57.531C32.9688 57.9534 33.5176 58.1646 34.1311 58.1646ZM34.1143 61.0813C32.6146 61.0813 31.3311 60.5327 30.2636 59.4356C29.1961 58.3379 28.7277 56.9832 28.8585 55.3712C27.2057 55.3902 25.8295 54.8968 24.7299 53.891C23.6308 52.8848 23.1092 51.4806 23.1651 49.6786C21.3631 49.6971 19.9432 49.182 18.9053 48.1335C17.8675 47.0845 17.3955 45.7017 17.4893 43.9853C15.8662 44.0042 14.5087 43.548 13.4169 42.6166C12.3251 41.6857 11.7792 40.39 11.7792 38.7294C11.7792 37.9818 11.924 37.2332 12.2138 36.4836C12.5035 35.7335 12.9325 35.0744 13.5008 34.5061L28.1738 19.8499L35.7068 27.3829C35.9537 27.641 36.2585 27.8532 36.6212 28.0194C36.9838 28.1857 37.3934 28.2688 37.8498 28.2688C38.474 28.2688 39.0255 28.051 39.5043 27.6155C39.9831 27.1799 40.2225 26.6124 40.2225 25.9129C40.2225 25.4569 40.1392 25.0476 39.9724 24.685C39.8062 24.3223 39.594 24.0175 39.3359 23.7706L29.3018 13.7358C28.5799 13.0032 27.8291 12.4658 27.0494 12.1236C26.2697 11.7814 25.4163 11.6103 24.4893 11.6103C23.573 11.6103 22.741 11.7814 21.9934 12.1236C21.2452 12.4658 20.5046 13.0032 19.7716 13.7358L10.8925 22.6316C10.2684 23.2563 9.76377 24.0005 9.37877 24.8643C8.99329 25.7282 8.78936 26.6199 8.767 27.5396C8.74464 28.1978 8.80079 28.8308 8.93544 29.4384C9.07009 30.046 9.28325 30.6172 9.57492 31.1519L7.36481 33.362C6.87481 32.5804 6.49152 31.6801 6.21492 30.6612C5.93832 29.6423 5.8112 28.6018 5.83356 27.5396C5.85592 26.216 6.12134 24.9475 6.62981 23.7341C7.13829 22.5208 7.86575 21.4411 8.81221 20.4952L17.6351 11.6723C18.6521 10.666 19.7281 9.91812 20.8631 9.4286C21.9977 8.9386 23.2252 8.6936 24.5454 8.6936C25.8652 8.6936 27.0832 8.9386 28.1993 9.4286C29.3154 9.91812 30.3763 10.666 31.3821 11.6723L33.9233 14.2127L36.4644 11.6723C37.4813 10.666 38.5479 9.91812 39.664 9.4286C40.7801 8.9386 41.9983 8.6936 43.3186 8.6936C44.6384 8.6936 45.8658 8.9386 47.0009 9.4286C48.1354 9.91812 49.2059 10.666 50.2121 11.6723L61.0767 22.5368C62.0825 23.5426 62.8583 24.6718 63.4042 25.9245C63.9501 27.1772 64.223 28.4635 64.223 29.7833C64.223 31.1036 63.9501 32.3218 63.4042 33.4379C62.8583 34.554 62.0825 35.6149 61.0767 36.6207L38.3376 59.343C37.7319 59.9487 37.0728 60.3898 36.3601 60.6664C35.648 60.943 34.8994 61.0813 34.1143 61.0813Z" fill="#1C1B1F"/>
</g>
</svg>
