<svg width="70" height="70" viewBox="0 0 70 70" fill="none" xmlns="http://www.w3.org/2000/svg">
<mask id="mask0_96_694" style="mask-type:alpha" maskUnits="userSpaceOnUse" x="0" y="0" width="70" height="70">
<rect width="70" height="70" fill="#D9D9D9"/>
</mask>
<g mask="url(#mask0_96_694)">
<path d="M21.8753 55.4166C19.856 55.4166 18.1359 54.7061 16.715 53.2852C15.2941 51.8643 14.5836 50.1442 14.5836 48.1249H8.07728L8.71676 45.2083H15.3296C15.857 43.9108 16.7077 42.8572 17.8817 42.0473C19.0556 41.2379 20.3868 40.8333 21.8753 40.8333C23.3638 40.8333 24.695 41.2379 25.8689 42.0473C27.0429 42.8572 27.8936 43.9108 28.421 45.2083H41.888L48.2937 17.4999H16.3562L16.4233 17.2141C16.5653 16.4509 16.9345 15.8216 17.5309 15.3263C18.1274 14.8309 18.8313 14.5833 19.6426 14.5833H51.9396L49.5778 24.7916H55.6416L63.5501 35.3368L61.0257 48.1249H57.6606C57.6606 50.1442 56.9502 51.8643 55.5293 53.2852C54.1084 54.7061 52.3883 55.4166 50.3689 55.4166C48.3496 55.4166 46.6295 54.7061 45.2086 53.2852C43.7877 51.8643 43.0773 50.1442 43.0773 48.1249H29.167C29.167 50.1442 28.4565 51.8643 27.0356 53.2852C25.6147 54.7061 23.8946 55.4166 21.8753 55.4166ZM46.3359 38.6458H59.9043L60.4205 36.0485L54.1832 27.7083H48.8822L46.3359 38.6458ZM47.5872 20.4224L48.2937 17.4999L41.888 45.2083L42.5946 42.2858L44.906 32.0891L47.5872 20.4224ZM4.87988 37.9108L5.60905 34.9941H18.6779L17.9487 37.9108H4.87988ZM10.7132 27.7141L11.4424 24.7974H27.4279L26.6987 27.7141H10.7132ZM21.8753 52.4999C23.0755 52.4999 24.1048 52.0709 24.9633 51.2129C25.8213 50.3545 26.2503 49.3251 26.2503 48.1249C26.2503 46.9247 25.8213 45.8954 24.9633 45.0369C24.1048 44.1789 23.0755 43.7499 21.8753 43.7499C20.6751 43.7499 19.6458 44.1789 18.7873 45.0369C17.9293 45.8954 17.5003 46.9247 17.5003 48.1249C17.5003 49.3251 17.9293 50.3545 18.7873 51.2129C19.6458 52.0709 20.6751 52.4999 21.8753 52.4999ZM50.3689 52.4999C51.5692 52.4999 52.5985 52.0709 53.457 51.2129C54.315 50.3545 54.7439 49.3251 54.7439 48.1249C54.7439 46.9247 54.315 45.8954 53.457 45.0369C52.5985 44.1789 51.5692 43.7499 50.3689 43.7499C49.1687 43.7499 48.1394 44.1789 47.2809 45.0369C46.4229 45.8954 45.9939 46.9247 45.9939 48.1249C45.9939 49.3251 46.4229 50.3545 47.2809 51.2129C48.1394 52.0709 49.1687 52.4999 50.3689 52.4999Z" fill="#1C1B1F"/>
</g>
</svg>
