<svg width="70" height="70" viewBox="0 0 70 70" fill="none" xmlns="http://www.w3.org/2000/svg">
<mask id="mask0_96_688" style="mask-type:alpha" maskUnits="userSpaceOnUse" x="0" y="0" width="70" height="70">
<rect width="70" height="70" fill="#D9D9D9"/>
</mask>
<g mask="url(#mask0_96_688)">
<path d="M47.278 52.2535L41.1982 58.3333L37.0755 54.2106L43.1561 48.0746C42.8867 47.5025 42.6753 46.906 42.5217 46.2853C42.3686 45.6645 42.292 45.025 42.292 44.3668C42.292 41.9212 43.139 39.8516 44.8331 38.158C46.5267 36.4639 48.5964 35.6168 51.042 35.6168C51.7298 35.6168 52.3936 35.6888 53.0333 35.8327C53.6726 35.9766 54.2819 36.187 54.8614 36.4641L49.0003 42.3252L53.0837 46.4085L58.9447 40.6204C59.2218 41.1998 59.4323 41.797 59.5762 42.4119C59.7201 43.0274 59.792 43.679 59.792 44.3668C59.792 46.8125 58.9449 48.8823 57.2509 50.5764C55.5572 52.27 53.4876 53.1168 51.042 53.1168C50.3726 53.1168 49.721 53.0403 49.0871 52.8871C48.4532 52.7335 47.8502 52.5223 47.278 52.2535ZM57.229 28.0452H54.2051C52.792 24.1038 50.3578 20.8748 46.9025 18.3582C43.4472 15.8416 39.4798 14.5833 35.0003 14.5833C29.3128 14.5833 24.4882 16.5642 20.5264 20.526C16.5646 24.4878 14.5837 29.3125 14.5837 35C14.5837 39.0984 15.6633 42.7836 17.8226 46.0556C19.9824 49.3271 22.7916 51.7744 26.2503 53.3976V43.75H29.167V58.3333H14.5837V55.4166H24.2422C20.5181 53.4722 17.4911 50.7004 15.1612 47.1012C12.8317 43.502 11.667 39.4683 11.667 35C11.667 31.7654 12.2756 28.7337 13.4928 25.9051C14.71 23.0764 16.376 20.6048 18.4905 18.4902C20.6051 16.3756 23.0767 14.7097 25.9054 13.4925C28.7341 12.2752 31.7657 11.6666 35.0003 11.6666C40.2615 11.6666 44.9068 13.2064 48.9362 16.2859C52.965 19.3649 55.7293 23.2847 57.229 28.0452Z" fill="#1C1B1F"/>
</g>
</svg>
