<svg width="70" height="70" viewBox="0 0 70 70" fill="none" xmlns="http://www.w3.org/2000/svg">
<mask id="mask0_96_700" style="mask-type:alpha" maskUnits="userSpaceOnUse" x="0" y="0" width="70" height="70">
<rect width="70" height="70" fill="#D9D9D9"/>
</mask>
<g mask="url(#mask0_96_700)">
<path d="M42.2913 52.5C43.0954 52.5 43.7825 52.2149 44.3527 51.6447C44.9229 51.0745 45.208 50.3874 45.208 49.5833C45.208 48.7793 44.9229 48.0922 44.3527 47.522C43.7825 46.9518 43.0954 46.6667 42.2913 46.6667C41.4873 46.6667 40.8002 46.9518 40.23 47.522C39.6598 48.0922 39.3747 48.7793 39.3747 49.5833C39.3747 50.3874 39.6598 51.0745 40.23 51.6447C40.8002 52.2149 41.4873 52.5 42.2913 52.5ZM27.5622 51.7373L44.4453 34.8542L42.4372 32.846L25.554 49.7292L27.5622 51.7373ZM27.708 37.9167C28.512 37.9167 29.1992 37.6316 29.7694 37.0614C30.3396 36.4911 30.6247 35.804 30.6247 35C30.6247 34.196 30.3396 33.5089 29.7694 32.9386C29.1992 32.3684 28.512 32.0833 27.708 32.0833C26.904 32.0833 26.2169 32.3684 25.6467 32.9386C25.0764 33.5089 24.7913 34.196 24.7913 35C24.7913 35.804 25.0764 36.4911 25.6467 37.0614C26.2169 37.6316 26.904 37.9167 27.708 37.9167ZM19.2949 61.25C17.9522 61.25 16.8313 60.8004 15.932 59.901C15.0327 59.0017 14.583 57.8808 14.583 56.5381V13.4619C14.583 12.1192 15.0327 10.9983 15.932 10.099C16.8313 9.19965 17.9522 8.75 19.2949 8.75H42.2913L55.4163 21.875V56.5381C55.4163 57.8808 54.9667 59.0017 54.0674 59.901C53.1681 60.8004 52.0471 61.25 50.7045 61.25H19.2949ZM40.833 23.3333V11.6667H19.2949C18.8457 11.6667 18.4342 11.8536 18.0604 12.2274C17.6866 12.6012 17.4997 13.0127 17.4997 13.4619V56.5381C17.4997 56.9873 17.6866 57.3988 18.0604 57.7726C18.4342 58.1464 18.8457 58.3333 19.2949 58.3333H50.7045C51.1536 58.3333 51.5651 58.1464 51.9389 57.7726C52.3128 57.3988 52.4997 56.9873 52.4997 56.5381V23.3333H40.833Z" fill="#1C1B1F"/>
</g>
</svg>
