<svg width="60" height="60" viewBox="0 0 60 60" fill="none" xmlns="http://www.w3.org/2000/svg">
<g clip-path="url(#clip0_259_1388)">
<g clip-path="url(#clip1_259_1388)">
<path d="M26.752 10H22.752L10.002 22.0738V25.8525L26.752 10Z" fill="#111000"/>
<path d="M10.002 15.9739V19.7526L20.3075 10H16.3075L10.002 15.9739Z" fill="#111000"/>
<path d="M50.0013 20.7962L37.668 32.4741L39.668 34.3635L50.0013 24.5749V20.7962Z" fill="#111000"/>
<path d="M50.0018 18.493V14.6964L34.4463 29.4152L36.4463 31.3225L50.0018 18.493Z" fill="#111000"/>
<path d="M33.2227 28.2636L50.0004 12.3932V10H48.5282L31.2227 26.3743L33.2227 28.2636Z" fill="#111000"/>
<path d="M13.8631 10H10.002V13.6527L13.8631 10Z" fill="#111000"/>
<path d="M17.9881 36.5587L29.9881 25.2047L30.002 25.2227L46.0853 10H42.0853L10.002 40.3554V50H17.9881V36.5587Z" fill="#111000"/>
<path d="M40.8906 35.5151L41.974 36.5587V50H50.0017V26.8961L40.8906 35.5151Z" fill="#111000"/>
<path d="M33.1964 10H29.1964L10.002 28.1556V31.9523L33.1964 10Z" fill="#111000"/>
<path d="M39.6408 10H35.6408L10.002 34.2555V38.0522L39.6408 10Z" fill="#111000"/>
</g>
</g>
<defs>
<clipPath id="clip0_259_1388">
<rect width="60" height="60" rx="9.14286" fill="white"/>
</clipPath>
<clipPath id="clip1_259_1388">
<rect width="40" height="40" fill="white" transform="translate(10 10)"/>
</clipPath>
</defs>
</svg>
