<svg width="100" height="100" viewBox="0 0 100 100" fill="none" xmlns="http://www.w3.org/2000/svg">
<mask id="mask0_370_1030" style="mask-type:alpha" maskUnits="userSpaceOnUse" x="0" y="0" width="100" height="100">
<rect width="100" height="100" fill="#D9D9D9"/>
</mask>
<g mask="url(#mask0_370_1030)">
<path d="M29.167 88.7823C23.9642 88.7823 19.5385 86.958 15.8899 83.3094C12.2413 79.6608 10.417 75.2351 10.417 70.0323C10.417 64.8288 12.2413 60.4031 15.8899 56.7552C19.5385 53.1066 23.9642 51.2823 29.167 51.2823C34.3698 51.2823 38.7955 53.1066 42.4441 56.7552C46.0927 60.4031 47.917 64.8288 47.917 70.0323C47.917 75.2351 46.0927 79.6608 42.4441 83.3094C38.7955 86.958 34.3698 88.7823 29.167 88.7823ZM85.5128 85.7375L59.0868 59.3104C58.7132 59.6312 58.266 59.9385 57.7451 60.2323C57.2236 60.526 56.7361 60.7531 56.2826 60.9135C55.716 60.1712 55.1107 59.4246 54.467 58.6739C53.8232 57.9233 53.1837 57.2246 52.5482 56.5781C55.6142 55.0184 58.1198 52.7496 60.0649 49.7719C62.0094 46.7934 62.9816 43.3972 62.9816 39.5833C62.9816 34.2417 61.1118 29.701 57.3722 25.9614C53.6326 22.2219 49.092 20.3521 43.7503 20.3521C38.4087 20.3521 33.868 22.2219 30.1285 25.9614C26.3889 29.701 24.5191 34.2417 24.5191 39.5833C24.5191 40.2139 24.5632 40.8403 24.6514 41.4625C24.7396 42.0847 24.8451 42.6976 24.968 43.301C24.0389 43.3864 23.0146 43.591 21.8951 43.9146C20.7764 44.2375 19.7736 44.5965 18.8868 44.9917C18.6944 44.1743 18.5434 43.3104 18.4337 42.4C18.3246 41.4889 18.2701 40.55 18.2701 39.5833C18.2701 32.468 20.7378 26.4424 25.6732 21.5062C30.6094 16.5708 36.6351 14.1031 43.7503 14.1031C50.8656 14.1031 56.8913 16.5708 61.8274 21.5062C66.7628 26.4424 69.2305 32.468 69.2305 39.5833C69.2305 42.5694 68.7351 45.3927 67.7441 48.0531C66.7538 50.7135 65.4385 53.0878 63.7982 55.176L89.9045 81.3458L85.5128 85.7375ZM21.8107 79.9844L29.167 72.6281L36.4587 79.9844L39.1191 77.3875L31.7628 70.0323L39.1191 62.676L36.5232 60.0802L29.167 67.4354L21.8107 60.0802L19.2149 62.676L26.5712 70.0323L19.2149 77.3875L21.8107 79.9844Z" fill="#FF0202"/>
</g>
</svg>
