<svg width="110" height="110" viewBox="0 0 110 110" fill="none" xmlns="http://www.w3.org/2000/svg">
<mask id="mask0_96_655" style="mask-type:alpha" maskUnits="userSpaceOnUse" x="0" y="0" width="110" height="110">
<rect width="110" height="110" fill="#D9D9D9"/>
</mask>
<g mask="url(#mask0_96_655)">
<path d="M16.042 92.3716V32.7883H34.3753V14.455H75.6253V51.1216H93.9587V92.3716H61.8753V74.0383H48.1253V92.3716H16.042ZM20.6253 87.7883H34.3753V74.0383H20.6253V87.7883ZM20.6253 69.455H34.3753V55.705H20.6253V69.455ZM20.6253 51.1216H34.3753V37.3716H20.6253V51.1216ZM38.9587 69.455H52.7087V55.705H38.9587V69.455ZM38.9587 51.1216H52.7087V37.3716H38.9587V51.1216ZM38.9587 32.7883H52.7087V19.0383H38.9587V32.7883ZM57.292 69.455H71.042V55.705H57.292V69.455ZM57.292 51.1216H71.042V37.3716H57.292V51.1216ZM57.292 32.7883H71.042V19.0383H57.292V32.7883ZM75.6253 87.7883H89.3753V74.0383H75.6253V87.7883ZM75.6253 69.455H89.3753V55.705H75.6253V69.455Z" fill="white"/>
</g>
</svg>
