<svg width="110" height="110" viewBox="0 0 110 110" fill="none" xmlns="http://www.w3.org/2000/svg">
<mask id="mask0_96_662" style="mask-type:alpha" maskUnits="userSpaceOnUse" x="0" y="0" width="110" height="110">
<rect width="110" height="110" fill="#D9D9D9"/>
</mask>
<g mask="url(#mask0_96_662)">
<path d="M55.0149 96.25C49.3109 96.25 43.9481 95.1676 38.9263 93.0027C33.9052 90.8379 29.5373 87.8999 25.8225 84.189C22.1077 80.478 19.1671 76.1139 17.0007 71.0967C14.8336 66.0802 13.75 60.7196 13.75 55.0149C13.75 49.3109 14.8328 43.9481 16.9984 38.9263C19.1641 33.9052 22.1031 29.5373 25.8156 25.8225C29.5281 22.1077 33.8938 19.1671 38.9125 17.0007C43.9313 14.8336 49.2938 13.75 55 13.75C58.0494 13.75 61.0141 14.0601 63.894 14.6804C66.7731 15.2999 69.5082 16.2208 72.0993 17.443V22.5557C69.5433 21.2036 66.8326 20.1621 63.9673 19.431C61.1019 18.6992 58.1129 18.3333 55 18.3333C44.8403 18.3333 36.1892 21.9045 29.0469 29.0469C21.9045 36.1892 18.3333 44.8403 18.3333 55C18.3333 65.1597 21.9045 73.8108 29.0469 80.9531C36.1892 88.0955 44.8403 91.6667 55 91.6667C65.1597 91.6667 73.8108 88.0955 80.9531 80.9531C88.0955 73.8108 91.6667 65.1597 91.6667 55C91.6667 52.7908 91.4772 50.6432 91.0983 48.557C90.7194 46.4708 90.1687 44.4465 89.4461 42.4841H94.364C94.9926 44.4641 95.464 46.4857 95.7779 48.549C96.0926 50.6115 96.25 52.7618 96.25 55C96.25 60.7063 95.1676 66.0688 93.0027 71.0875C90.8379 76.1063 87.8999 80.4719 84.189 84.1844C80.478 87.8969 76.1139 90.8359 71.0967 93.0016C66.0802 95.1672 60.7196 96.25 55.0149 96.25ZM93.9583 29.7917V20.625H84.7917V16.0417H93.9583V6.875H98.5417V16.0417H107.708V20.625H98.5417V29.7917H93.9583ZM70.1811 48.6544C71.6066 48.6544 72.8116 48.1552 73.7963 47.1568C74.7801 46.1584 75.2721 44.9465 75.2721 43.521C75.2721 42.0949 74.7733 40.8898 73.7756 39.9059C72.7772 38.9213 71.5653 38.429 70.1399 38.429C68.7137 38.429 67.5087 38.9282 66.5248 39.9266C65.5401 40.925 65.0478 42.1369 65.0478 43.5623C65.0478 44.9885 65.547 46.1935 66.5454 47.1774C67.5431 48.1621 68.755 48.6544 70.1811 48.6544ZM39.8601 48.6544C41.2863 48.6544 42.4913 48.1552 43.4752 47.1568C44.4599 46.1584 44.9522 44.9465 44.9522 43.521C44.9522 42.0949 44.453 40.8898 43.4546 39.9059C42.4569 38.9213 41.245 38.429 39.8189 38.429C38.3934 38.429 37.1884 38.9282 36.2037 39.9266C35.2199 40.925 34.7279 42.1369 34.7279 43.5623C34.7279 44.9885 35.2267 46.1935 36.2244 47.1774C37.2228 48.1621 38.4347 48.6544 39.8601 48.6544ZM55 77.3873C59.4581 77.3873 63.5063 76.1815 67.1447 73.7699C70.7831 71.3575 73.5277 68.1565 75.3786 64.1667H34.6214C36.4723 68.1565 39.2169 71.3575 42.8553 73.7699C46.4937 76.1815 50.5419 77.3873 55 77.3873Z" fill="white"/>
</g>
</svg>
