<svg width="110" height="110" viewBox="0 0 110 110" fill="none" xmlns="http://www.w3.org/2000/svg">
<mask id="mask0_96_676" style="mask-type:alpha" maskUnits="userSpaceOnUse" x="0" y="0" width="110" height="110">
<rect width="110" height="110" fill="#D9D9D9"/>
</mask>
<g mask="url(#mask0_96_676)">
<path d="M39.8262 52.0037C43.2782 52.0037 46.2295 50.8109 48.6801 48.4252C51.1299 46.0388 52.3548 43.1181 52.3548 39.663V27.5H27.4994V39.7031C27.4994 43.12 28.691 46.0243 31.0744 48.4161C33.4577 50.8078 36.375 52.0037 39.8262 52.0037ZM27.4994 82.5H52.3548V70.2969C52.3548 66.88 51.1299 63.9757 48.6801 61.584C46.2295 59.1922 43.2782 57.9964 39.8262 57.9964C36.375 57.9964 33.4577 59.1892 31.0744 61.5748C28.691 63.9612 27.4994 66.8819 27.4994 70.337V82.5ZM16.041 87.0834V82.5H22.916V70.337C22.916 66.7169 23.9855 63.4731 26.1244 60.6054C28.2632 57.7378 31.0251 55.8693 34.4099 55C30.9663 54.1307 28.1899 52.2473 26.0808 49.3499C23.9709 46.4532 22.916 43.1659 22.916 39.4877V27.5H16.041V22.9167H63.6367V27.5H56.9381V39.4877C56.9381 43.2247 55.8541 46.527 53.6862 49.3946C51.5175 52.2622 48.7118 54.1307 45.2689 55C48.7118 55.8693 51.5175 57.7233 53.6862 60.5619C55.8541 63.3997 56.9381 66.6581 56.9381 70.337V82.5H63.6367V87.0834H16.041ZM86.5533 87.0834V31.6961L79.7494 38.5L76.5055 35.2562L88.845 22.9167L101.186 35.2562L97.9154 38.5L91.1367 31.7224V87.0834H86.5533Z" fill="white"/>
</g>
</svg>
