<svg width="136" height="110" viewBox="0 0 136 110" fill="none" xmlns="http://www.w3.org/2000/svg">
<mask id="mask0_96_669" style="mask-type:alpha" maskUnits="userSpaceOnUse" x="0" y="0" width="136" height="110">
<rect width="136" height="110" fill="#D9D9D9"/>
</mask>
<g mask="url(#mask0_96_669)">
<path d="M60.8727 59.3182C59.2349 59.3182 57.889 58.6905 56.8349 57.4352C55.7818 56.179 55.3862 54.7138 55.648 53.0398L56.8335 45.4613C57.3106 42.704 58.6216 40.4377 60.7665 38.6626C62.9105 36.8876 65.3304 36 68.0262 36C70.784 36 73.2349 36.8876 75.3789 38.6626C77.5239 40.4377 78.8349 42.704 79.312 45.4613L80.4975 53.0398C80.7593 54.7138 80.3636 56.179 79.3105 57.4352C78.2565 58.6905 76.9105 59.3182 75.2727 59.3182H60.8727ZM61.4545 53.4886H74.6909L73.5273 46.3474C73.3333 44.9872 72.703 43.8942 71.6364 43.0683C70.5697 42.2425 69.3576 41.8295 68 41.8295C66.6424 41.8295 65.4545 42.2425 64.4364 43.0683C63.4182 43.8942 62.8121 44.9872 62.6182 46.3474L61.4545 53.4886ZM20.0364 63.3202C18.4684 63.4173 17.0948 63.1171 15.9156 62.4195C14.7365 61.7209 13.9685 60.6386 13.6116 59.1724C13.4177 58.5224 13.3876 57.8909 13.5215 57.2778C13.6562 56.6648 13.8429 56.0692 14.0815 55.4911C14.0815 55.564 14.033 55.4197 13.936 55.0582C13.8167 54.8639 13.4807 54.0342 12.928 52.569C12.8087 51.7024 12.9193 50.8989 13.2596 50.1585C13.599 49.4191 14.0407 48.7803 14.5847 48.242C14.6594 48.242 14.719 48.1823 14.7636 48.0628C14.9062 46.7531 15.4584 45.6503 16.4204 44.7545C17.3823 43.8587 18.5343 43.4108 19.8764 43.4108C19.9442 43.4108 20.6046 43.5303 21.8575 43.7693L22.1818 43.7358C22.5173 43.3617 22.9537 43.0814 23.4909 42.8949C24.0281 42.7074 24.5988 42.6136 25.2029 42.6136C25.9767 42.6136 26.6623 42.7278 27.2596 42.9561C27.8579 43.1844 28.3292 43.5731 28.6735 44.122C28.7433 44.122 28.7952 44.1414 28.8291 44.1803C28.864 44.2201 28.9159 44.2401 28.9847 44.2401C29.8943 44.3372 30.7229 44.6399 31.4705 45.148C32.2172 45.6571 32.7685 46.3523 33.1244 47.2335C33.2436 47.764 33.2979 48.2328 33.2873 48.6399C33.2756 49.047 33.1728 49.4672 32.9789 49.9006C32.9789 49.9229 33.0274 50.0798 33.1244 50.3713C33.6538 50.9027 34.0378 51.4318 34.2764 51.9584C34.5159 52.485 34.6356 53.0738 34.6356 53.7247C34.6356 53.8889 34.4562 54.6098 34.0975 55.8875C34.0752 55.9322 34.0752 56.0891 34.0975 56.3582C34.1721 56.5827 34.2318 57.136 34.2764 58.0182C34.2764 59.4736 33.6674 60.7212 32.4495 61.7608C31.2315 62.8004 29.7522 63.3202 28.0116 63.3202H20.0364ZM111.798 63.8026C109.535 63.8026 107.581 62.9855 105.936 61.3512C104.291 59.717 103.469 57.7525 103.469 55.4576C103.469 54.623 103.588 53.8476 103.827 53.1316C104.066 52.4155 104.391 51.716 104.8 51.0329L101.882 48.4942C101.187 47.952 101.065 47.2661 101.516 46.4363C101.967 45.6076 102.608 45.1932 103.441 45.1932H111.77C114.061 45.1932 116.01 46.0011 117.617 47.6168C119.224 49.2326 120.028 51.1748 120.028 53.4435V55.5071C120.028 57.7418 119.222 59.683 117.61 61.3308C115.999 62.9786 114.061 63.8026 111.798 63.8026ZM4 86V80.9662C4 77.3635 5.89867 74.3871 9.696 72.0368C13.4933 69.6865 18.4208 68.5114 24.4785 68.5114C25.5879 68.5114 26.6497 68.5541 27.664 68.6396C28.6783 68.7261 29.6446 68.8665 30.5629 69.0608C29.727 70.5551 29.0817 72.1247 28.6269 73.7696C28.1721 75.4145 27.9447 77.1668 27.9447 79.0264V86H4ZM38.9091 86V79.4418C38.9091 74.6207 41.599 70.7902 46.9789 67.9503C52.3578 65.1103 59.375 63.6903 68.0305 63.6903C76.7675 63.6903 83.7949 65.1103 89.1127 67.9503C94.4315 70.7902 97.0909 74.6207 97.0909 79.4418V86H38.9091ZM111.636 68.5114C117.745 68.5114 122.667 69.6865 126.4 72.0368C130.133 74.3871 132 77.3635 132 80.9662V86H108.055V79.0264C108.055 77.1668 107.852 75.4145 107.446 73.7696C107.04 72.1247 106.43 70.5551 105.617 69.0608C106.535 68.8665 107.502 68.7261 108.519 68.6396C109.536 68.5541 110.576 68.5114 111.636 68.5114ZM67.9869 69.5199C61.424 69.5199 55.9796 70.3982 51.6538 72.1548C47.327 73.9105 45.0739 76.1714 44.8945 78.9375V80.1705H91.1389V78.9375C90.9372 76.1714 88.6972 73.9105 84.4189 72.1548C80.1416 70.3982 74.6642 69.5199 67.9869 69.5199Z" fill="white"/>
</g>
</svg>
