<svg width="50" height="46" viewBox="0 0 50 46" fill="none" xmlns="http://www.w3.org/2000/svg">
<path d="M20.9375 0H15.9375L0 13.8848V18.2303L20.9375 0Z" fill="white"/>
<path d="M0 6.87V11.2155L12.8819 0H7.88194L0 6.87Z" fill="white"/>
<path d="M49.9997 12.4157L34.583 25.8453L37.083 28.018L49.9997 16.7611V12.4157Z" fill="white"/>
<path d="M50.0001 9.76698V5.40081L30.5557 22.3275L33.0557 24.5209L50.0001 9.76698Z" fill="white"/>
<path d="M29.0273 21.0031L49.9996 2.75214V0H48.1593L26.5273 18.8304L29.0273 21.0031Z" fill="white"/>
<path d="M4.82639 0H0V4.20063L4.82639 0Z" fill="white"/>
<path d="M9.98264 30.5425L24.9826 17.4854L25 17.5061L45.1042 0H40.1042L0 34.9087V46H9.98264V30.5425Z" fill="white"/>
<path d="M38.6113 29.3423L39.9655 30.5425V46H50.0002V19.4305L38.6113 29.3423Z" fill="white"/>
<path d="M28.9931 0H23.9931L0 20.879V25.2452L28.9931 0Z" fill="white"/>
<path d="M37.0486 0H32.0486L0 27.8938V32.26L37.0486 0Z" fill="white"/>
</svg>
