<svg width="124" height="123" viewBox="0 0 124 123" fill="none" xmlns="http://www.w3.org/2000/svg">
<g clip-path="url(#clip0_366_750)">
<ellipse cx="62.2313" cy="60.6154" rx="60.2899" ry="60" fill="white"/>
<path d="M80.7815 119.538C48.4723 129.692 13.8443 111.692 3.64138 79.5384C-6.40693 47.3845 11.5254 12.923 43.8346 2.76915C76.1438 -7.3847 110.772 10.6153 120.975 42.7691C131.178 74.923 113.091 109.385 80.7815 119.538ZM44.7622 5.69223C14.1535 15.3845 -3.00596 47.9999 6.73317 78.6153C16.3177 109.231 49.2452 126.154 80.0085 116.615C110.772 107.077 127.777 74.3076 118.192 43.6922C108.453 13.2307 75.5254 -4.00008 44.7622 5.69223Z" fill="#003F5B"/>
<path d="M31.7763 52.4615C34.5589 42.6153 42.2883 34.3076 52.8004 30.923C63.3125 27.5384 74.4429 30.1538 82.4816 36.6153L85.8825 35.5384C76.9164 27.5384 64.0854 24.1538 51.8729 27.9999C39.6603 31.8461 31.0033 41.8461 28.2207 53.5384L31.6217 52.4615H31.7763Z" fill="#003F5B"/>
<path d="M93.3036 68.7692C90.6756 79.0769 82.9462 88 71.9703 91.3846C60.9945 94.7692 49.5548 92 41.5162 84.9231L38.1152 86C47.0814 94.6154 60.2215 98.3077 72.8978 94.3077C85.5742 90.3077 94.3858 79.8462 96.7046 67.6923L93.3036 68.7692Z" fill="#003F5B"/>
<path d="M79.2353 114.615C49.5541 123.846 18.0179 107.385 8.58794 77.9999C-0.687421 48.4615 15.8536 16.923 45.5348 7.69224C75.216 -1.53853 106.752 14.923 116.182 44.3076C125.458 73.8461 108.916 105.231 79.3899 114.615H79.2353ZM45.9986 9.2307C17.0904 18.1538 1.01306 48.923 10.1338 77.5384C19.2546 106.154 50.0179 122.154 78.7715 113.231C107.525 104.154 123.602 73.5384 114.636 44.923C105.515 16.3076 74.7522 0.307622 45.9986 9.2307Z" fill="#003F5B"/>
<path d="M98.7128 67.0768C96.5485 80.3075 87.1186 91.846 73.3601 96.1537C59.6017 100.461 45.2249 96.3075 35.9495 86.7691L34.249 87.2306C43.9882 97.6922 59.2925 102.154 73.8239 97.6922C88.3553 93.0768 98.249 80.7691 100.259 66.6152L98.5582 67.0768H98.7128Z" fill="#003F5B"/>
<path d="M26.2109 54.3076C28.6844 41.5383 37.9597 30.4614 51.2544 26.3076C64.5491 22.1537 78.6167 25.9999 88.0467 35.0768L89.7472 34.6153C80.008 24.7691 65.0129 20.4614 50.9452 24.923C36.8776 29.3845 26.9839 41.2306 24.665 54.923L26.3655 54.4614L26.2109 54.3076Z" fill="#003F5B"/>
<path d="M95.6224 92.3076L100.724 86.7691L104.743 80.4614H105.825C105.825 80.6153 101.497 87.3845 101.497 87.3845L96.2407 93.0768L95.4678 92.3076H95.6224Z" fill="#003F5B"/>
<path d="M19.8728 78.769L20.955 81.2306L20.0274 81.6921L18.9453 79.2306L19.8728 78.769Z" fill="#003F5B"/>
<path d="M61.6123 66.1538L56.6654 79.2308L54.8103 83.3846L44.6074 46.3077L47.39 45.5385L55.4287 74.6154L59.2934 64.4615L61.6123 66.1538Z" fill="#003F5B"/>
<path d="M84.955 75.2308L81.0903 76.3077L62.6941 63.8461L60.2207 62.1538L68.7231 39.6923L72.1241 38.7692L63.7763 61.0769L69.6507 65.0769L74.1337 53.2308L76.4526 54.9231L72.1241 66.7692L84.955 75.3846V75.2308Z" fill="#003F5B"/>
<path d="M84.1816 96.7691L85.1092 96.1537L89.1285 101.692L92.8386 99.0768L88.8193 93.5384L89.7469 92.923L94.3845 99.3845L88.8193 103.385L84.1816 96.923V96.7691Z" fill="#003F5B"/>
<path d="M78.6163 101.538L82.481 99.846V97.846L83.5632 97.3845V106L82.481 106.461L75.9883 100.769L77.225 100.308L78.6163 101.692V101.538ZM79.3892 102.308L82.481 105.231V100.923L79.3892 102.308Z" fill="#003F5B"/>
<path d="M72.2786 109.384C71.8148 109.384 71.5057 109.077 71.1965 108.769C70.8873 108.461 70.7327 108.154 70.5781 107.692C70.5781 107.231 70.5781 106.923 70.5781 106.461C70.5781 106 70.8873 105.692 71.1965 105.384C71.5057 105.077 71.9694 104.923 72.4332 104.769L74.752 104.154L73.9791 100.923L75.0612 100.615L76.9163 108.308L73.5153 109.077C73.0516 109.077 72.5878 109.077 72.124 109.077L72.2786 109.384ZM71.9694 106.461C71.8148 106.769 71.8148 107.077 71.9694 107.384C71.9694 107.846 72.2786 108 72.5878 108.154C72.897 108.154 73.2061 108.308 73.6699 108.154L75.8342 107.538L75.2158 105.077L73.0516 105.692C72.5878 105.692 72.2786 106 72.124 106.308L71.9694 106.461Z" fill="#003F5B"/>
<path d="M62.8489 109.692H65.6315C65.6315 109.538 65.0132 102.615 65.0132 102.615H66.0953L66.7137 109.385H69.4963C69.4963 109.231 69.4963 110.308 69.4963 110.308L62.6943 110.923V109.846L62.8489 109.692Z" fill="#003F5B"/>
<path d="M53.8828 110L54.6558 102.154H55.7379L55.4287 105.692L59.9118 106.154L60.221 102.769H61.3031L60.5302 110.769H59.448L59.7572 107.231L55.2741 106.769L54.9649 110.154H53.8828V110Z" fill="#003F5B"/>
<path d="M50.018 108L50.6363 105.692L46.9262 104.615L47.2353 103.538L50.9455 104.615L51.5638 102.308L47.5445 101.077L47.8537 99.9999L52.9552 101.538L50.7909 109.077L45.6895 107.538L45.9986 106.461L50.018 107.538V108Z" fill="#003F5B"/>
<path d="M38.8876 104.615C38.5784 104.308 38.4238 103.846 38.4238 103.538C38.4238 103.077 38.4238 102.769 38.733 102.308C38.8876 101.846 39.1968 101.538 39.506 101.385C39.8151 101.231 40.2789 101.077 40.5881 101.077C41.0518 101.077 41.5156 101.077 41.9794 101.385L44.1436 102.308L45.5349 99.3846L46.6171 99.8461L43.2161 106.923L40.1243 105.385C39.6605 105.231 39.3514 104.923 39.0422 104.461L38.8876 104.615ZM40.5881 102.154C40.2789 102.154 39.9697 102.461 39.8151 102.923C39.6605 103.385 39.6605 103.692 39.8151 103.846C39.8151 104.154 40.1243 104.308 40.5881 104.615L42.5977 105.538L43.6799 103.231L41.6702 102.308C41.2064 102.154 40.8973 102 40.5881 102.308V102.154Z" fill="#003F5B"/>
<path d="M35.4864 103.077L34.5589 102.461L38.269 97.3845L30.8487 99.8461L29.7666 99.0769L34.4043 92.7692L35.3318 93.3845L31.4671 98.6153L39.042 96.1538L40.1241 96.923L35.4864 103.231V103.077Z" fill="#003F5B"/>
<path d="M26.8298 89.8461H28.3757C28.3757 89.9999 30.5399 88.4614 30.5399 88.4614L31.3129 89.3845L25.1293 94.3076L24.3563 93.3845L27.4481 90.923L21.7283 90.1538L20.8008 89.0768L25.7476 89.8461L26.9844 84.1537L27.9119 85.3845L26.8298 90.1538V89.8461Z" fill="#003F5B"/>
<path d="M17.3994 82.4615C17.3994 81.9999 17.3994 81.6922 17.7086 81.2307C18.0178 80.7692 18.1724 80.6153 18.6361 80.4615C19.0999 80.3076 19.4091 80.1538 19.8728 80.1538C20.3366 80.1538 20.6458 80.1538 20.955 80.4615C21.2641 80.7692 21.5733 81.0769 21.8825 81.5384L22.9646 83.5384L25.9018 81.9999L26.3656 82.923L19.4091 86.6153L17.7086 83.5384C17.3994 83.0769 17.3994 82.6153 17.3994 82.1538V82.4615ZM20.182 81.3845C19.8728 81.3845 19.5637 81.3845 19.2545 81.3845C18.9453 81.5384 18.6361 81.8461 18.6361 82.1538C18.6361 82.4615 18.6361 82.7692 18.7907 83.2307L19.8728 85.2307L22.0371 83.9999L20.955 81.9999C20.8004 81.5384 20.4912 81.3845 20.182 81.2307V81.3845Z" fill="#003F5B"/>
<path d="M16.3176 78L18.6364 77.2307L17.3997 73.5384L18.4818 73.2307L19.7185 76.9231L22.0374 76.1538L20.6461 72.1538L21.7282 71.8461L23.4287 76.9231L15.8538 79.5384L14.1533 74.4615L15.2354 74.1538L16.6268 78.1538L16.3176 78Z" fill="#003F5B"/>
<path d="M13.381 65.6923L13.8447 68.4615L20.6467 67.2307V68.3076C20.8012 68.3076 14.1539 69.5384 14.1539 69.5384L14.6177 72.3076H13.5355C13.5355 72.4615 12.2988 65.8461 12.2988 65.8461H13.381V65.6923Z" fill="#003F5B"/>
<path d="M12.1436 63.5384V62.4615H18.4817L12.1436 57.8461V56.4615H20.0276V57.5384H13.5349L20.0276 62.3076V63.5384H12.1436Z" fill="#003F5B"/>
<path d="M18.3272 48.6153C18.6364 48.6153 19.1002 48.6153 19.4094 48.6153C19.8731 48.6153 20.1823 48.923 20.4915 49.0769C20.8007 49.3845 20.9552 49.6922 21.1098 50.1538C21.1098 50.6153 21.1098 51.0769 21.1098 51.5384L20.3369 55.0769L12.6074 53.5384L13.3804 49.9999C13.3804 49.5384 13.6895 49.0769 13.9987 48.7692C14.3079 48.4615 14.6171 48.1538 14.9263 48.1538C15.2354 48.1538 15.6992 48.1538 16.0084 48.1538C16.3176 48.1538 16.6267 48.3076 16.9359 48.6153C17.2451 48.7692 17.3997 49.0769 17.5543 49.5384C17.8635 49.2307 18.1726 48.923 18.4818 48.923L18.3272 48.6153ZM19.8731 50.3076C19.7185 49.9999 19.4094 49.8461 19.1002 49.6922C18.791 49.6922 18.3272 49.6922 18.1726 49.8461C17.8635 49.9999 17.7089 50.3076 17.7089 50.7692L17.2451 53.0769L19.5639 53.5384L20.0277 51.2307C20.0277 50.7692 20.0277 50.4615 20.0277 50.1538L19.8731 50.3076ZM16.6267 50.7692C16.6267 50.3076 16.6267 49.9999 16.6267 49.6922C16.4722 49.3845 16.163 49.2307 15.8538 49.2307C15.0809 49.0769 14.6171 49.3845 14.4625 50.3076L13.9987 52.6153L16.3176 53.0769L16.7813 50.7692H16.6267Z" fill="#003F5B"/>
<path d="M17.0909 38.6153L24.5112 41.5384L24.0474 42.6153L20.8011 41.3845L19.1006 45.5384L22.347 46.7691L21.8832 47.8461L14.4629 44.923L14.9267 43.8461L18.173 45.0768L19.8735 40.923L16.6271 39.6922L17.0909 38.6153Z" fill="#003F5B"/>
<path d="M25.7472 38.6153C25.1289 38.923 24.3559 39.0768 23.7376 39.0768C22.9646 39.0768 22.3463 38.7691 21.7279 38.3076C21.1096 37.846 20.6458 37.3845 20.3366 36.7691C20.0274 36.1537 19.8729 35.3845 20.0274 34.7691C20.0274 33.9999 20.3366 33.3845 20.8004 32.7691C21.2642 32.1537 21.7279 31.6922 22.3463 31.3845C22.9646 31.0768 23.7376 30.923 24.3559 30.923C25.1289 30.923 25.7472 31.2307 26.3656 31.6922C26.984 32.1537 27.4477 32.6153 27.7569 33.2307C28.0661 33.8461 28.2207 34.6153 28.0661 35.2307C28.0661 35.9999 27.7569 36.6153 27.2931 37.2307C26.8294 37.846 26.3656 38.3076 25.5927 38.6153H25.7472ZM26.984 35.2307C26.984 34.7691 26.984 34.1537 26.6748 33.6922C26.3656 33.2307 26.0564 32.7691 25.5927 32.4614C25.1289 32.1537 24.6651 31.9999 24.0468 31.9999C23.583 31.9999 22.9646 31.9999 22.5009 32.3076C22.0371 32.4614 21.5733 32.923 21.2642 33.3845C20.955 33.846 20.8004 34.3076 20.8004 34.7691C20.8004 35.2307 20.8004 35.8461 21.1096 36.3076C21.4187 36.7691 21.7279 37.2307 22.1917 37.5384C22.6555 37.846 23.1192 37.9999 23.7376 37.9999C24.2014 37.9999 24.8197 37.9999 25.2835 37.6922C25.7472 37.5384 26.211 37.0768 26.5202 36.6153C26.8294 36.1537 26.984 35.6922 26.984 35.2307Z" fill="#003F5B"/>
<path d="M25.5931 26.7692L31.4675 32.1538L30.6945 32.9231L24.8201 27.5384L25.5931 26.7692ZM23.2742 26L24.2018 26.9231L23.2742 27.8461L22.3467 26.9231L23.2742 26ZM24.8201 24.3077L25.7476 25.2308L24.8201 26.1538L23.8926 25.2308L24.8201 24.3077Z" fill="#003F5B"/>
<path d="M37.4958 19.0768C37.9595 19.0768 38.4233 19.0768 38.8871 19.2306C39.3509 19.3844 39.66 19.6921 39.9692 20.1537C40.2784 20.6152 40.433 21.0768 40.433 21.5383C40.433 21.9998 40.433 22.4614 40.1238 22.9229C39.9692 23.3844 39.5054 23.6921 39.0417 24.1537L37.9595 24.9229L38.7325 26.1537L37.805 26.7691L37.032 25.5383L35.9499 26.3075C35.4861 26.6152 35.0224 26.9229 34.404 26.9229C33.9402 26.9229 33.4765 26.9229 33.0127 26.7691C32.5489 26.6152 32.2397 26.3075 31.9306 25.846C31.6214 25.3844 31.4668 24.9229 31.4668 24.4614C31.4668 23.9998 31.4668 23.5383 31.776 23.0768C31.9306 22.6152 32.3943 22.3075 32.8581 21.846L33.9402 21.0768L33.1673 19.846L34.0948 19.2306L34.8678 20.4614L35.9499 19.6921C36.4137 19.3844 36.8774 19.0768 37.4958 19.0768ZM36.4137 24.4614L34.5586 21.846L33.4765 22.6152C33.0127 22.9229 32.7035 23.2306 32.7035 23.6921C32.7035 24.1537 32.7035 24.4614 33.0127 24.9229C33.3219 25.3844 33.631 25.5383 34.0948 25.6921C34.5586 25.6921 34.8678 25.6921 35.3315 25.2306L36.4137 24.4614ZM39.1963 21.9998C39.1963 21.5383 39.1963 21.2306 38.8871 20.7691C38.5779 20.3075 38.2687 20.1537 37.805 19.9998C37.3412 19.9998 37.032 19.9998 36.5682 20.4614L35.4861 21.2306L37.3412 23.846L38.4233 23.0768C38.8871 22.7691 39.1963 22.4614 39.1963 21.9998Z" fill="#003F5B"/>
<path d="M46.9257 19.5384L42.9063 21.2307V23.2307L41.8242 23.6922V15.0769C41.9788 15.0769 43.2155 14.6153 43.2155 14.6153L49.5537 20.4615L48.317 20.923L46.9257 19.5384ZM46.1527 18.7692L43.0609 15.8461V20.1538L46.1527 18.7692Z" fill="#003F5B"/>
<path d="M54.1916 15.0768C54.6554 15.0768 54.9645 15.3845 55.2737 15.6922C55.5829 15.9999 55.7375 16.3076 55.8921 16.7691C55.8921 17.2307 55.8921 17.5384 55.8921 17.9999C55.8921 18.3076 55.5829 18.7691 55.2737 18.923C54.9645 19.2307 54.5008 19.3845 54.037 19.5384L50.636 20.3076L48.9355 12.6153L54.3462 11.3845V12.4614C54.5008 12.4614 50.3268 13.3845 50.3268 13.3845L50.7906 15.5384L53.1095 15.0768C53.5732 15.0768 54.037 15.0768 54.5008 15.0768H54.1916ZM54.5008 17.9999C54.6554 17.6922 54.6554 17.3845 54.5008 17.0768C54.5008 16.6153 54.1916 16.4614 53.8824 16.3076C53.5732 16.1538 53.264 16.1538 52.8003 16.3076L50.4814 16.7691L51.0998 19.2307L53.4186 18.7691C53.8824 18.7691 54.1916 18.4614 54.3462 18.3076L54.5008 17.9999Z" fill="#003F5B"/>
<path d="M62.0758 11.0769C62.5395 11.2307 62.8487 11.5384 63.0033 11.8461C63.1579 12.1538 63.3125 12.6153 63.3125 13.0769C63.3125 13.5384 63.3125 13.9999 63.0033 14.3076C62.8487 14.6153 62.5395 14.923 62.2304 15.2307C61.9212 15.3846 61.4574 15.5384 60.839 15.5384H58.5202L58.6748 18.923H57.5927L57.1289 11.0769H60.5299C60.9936 10.923 61.4574 11.0769 61.9212 11.0769H62.0758ZM61.7666 13.9999C61.9212 13.8461 62.0758 13.3846 62.0758 13.0769C62.0758 12.7692 62.0758 12.3076 61.612 12.1538C61.3028 11.9999 60.9936 11.8461 60.5299 11.8461H58.211V14.4615H60.5299C60.9936 14.4615 61.3028 14.1538 61.612 13.9999H61.7666Z" fill="#003F5B"/>
<path d="M65.7862 10.7692H66.8684C66.8684 10.923 65.9408 17.2307 65.9408 17.2307L71.3514 11.5384H72.7428C72.7428 11.6922 71.6606 19.5384 71.6606 19.5384H70.5785C70.5785 19.3845 71.506 12.923 71.506 12.923L65.9408 18.7692H64.7041C64.7041 18.6153 65.7862 10.7692 65.7862 10.7692Z" fill="#003F5B"/>
<path d="M76.607 17.2307L75.2157 17.8461L74.2882 20.3076L73.2061 19.9999L75.8341 12.4615L76.9162 12.7692L75.6795 16.4615L80.9355 14.1538L82.3268 14.6153L77.8437 16.6153L79.8534 22.1538L78.4621 21.6923L76.7616 17.2307H76.607Z" fill="#003F5B"/>
<path d="M84.6453 15.8461L85.5728 16.4615L82.3265 22L89.4376 18.7692L90.6743 19.5384L86.655 26.3077L85.7274 25.6923L88.9738 20L81.7081 23.2307L80.626 22.6154L84.6453 15.8461Z" fill="#003F5B"/>
<path d="M96.8573 31.0768C96.8573 31.3845 96.5481 31.6922 96.2389 31.9999C95.9298 32.3075 95.6206 32.4614 95.1568 32.6152C94.8476 32.6152 94.3839 32.6152 93.9201 32.6152C93.4563 32.6152 93.1472 32.1537 92.6834 31.846L90.21 29.3845L95.9298 23.846L98.4032 26.3075C98.7124 26.6152 99.0216 27.0768 99.1761 27.3845C99.1761 27.846 99.1761 28.1537 99.1761 28.4614C99.1761 28.7691 98.867 29.0768 98.5578 29.3845C98.2486 29.6922 97.9394 29.846 97.6303 29.846C97.3211 29.846 97.0119 29.846 96.5481 29.846C96.5481 30.3075 96.5481 30.6152 96.5481 30.9229L96.8573 31.0768ZM94.5385 31.5383C94.8476 31.5383 95.1568 31.5383 95.466 31.0768C95.7752 30.7691 95.9298 30.4614 95.7752 30.1537C95.7752 29.846 95.6206 29.5383 95.3114 29.2306L93.6109 27.5383L91.9104 29.2306L93.6109 30.9229C93.9201 31.2306 94.2293 31.3845 94.5385 31.3845V31.5383ZM95.9298 28.4614C96.239 28.7691 96.5481 28.9229 96.8573 28.9229C97.1665 28.9229 97.4757 28.9229 97.7848 28.4614C98.4032 27.846 98.2486 27.3845 97.7848 26.6152L96.0844 24.9229L94.3839 26.6152L96.0844 28.3075L95.9298 28.4614Z" fill="#003F5B"/>
<path d="M102.423 30.6154L96.0852 35.3846L95.4668 34.4616L101.805 29.6923L102.423 30.6154Z" fill="#003F5B"/>
<path d="M101.651 36.9231L100.105 36.4616L97.7863 37.8462L97.168 36.9231L103.97 32.9231L104.588 33.8462L101.187 35.8462L106.753 37.5385L107.525 38.7692L102.733 37.3846L100.724 42.9231L99.9506 41.6923L101.651 37.2308V36.9231Z" fill="#003F5B"/>
<path d="M109.534 47.0768L108.607 44.4615L102.114 46.7691L101.65 45.6922L108.143 43.3845L107.216 40.7691L108.298 40.4615L110.617 46.7691L109.534 47.0768Z" fill="#003F5B"/>
<path d="M103.815 51.0768C104.124 50.4614 104.433 49.846 105.051 49.3845C105.67 48.923 106.288 48.6153 107.061 48.4614C107.834 48.4614 108.452 48.4614 109.225 48.6153C109.844 48.923 110.462 49.2307 110.926 49.846C111.39 50.4614 111.699 51.0768 111.853 51.846C111.853 52.6153 111.853 53.3845 111.699 53.9999C111.39 54.6153 111.08 55.2307 110.462 55.6922C109.844 56.1537 109.225 56.4614 108.452 56.6153C107.679 56.6153 107.061 56.6153 106.288 56.4614C105.67 56.1537 105.051 55.846 104.588 55.2307C104.124 54.6153 103.815 53.9999 103.66 53.2307C103.66 52.4614 103.66 51.6922 103.815 51.0768ZM105.515 54.4614C105.824 54.923 106.288 55.0768 106.752 55.3845C107.216 55.5383 107.834 55.5383 108.298 55.3845C108.916 55.3845 109.38 55.0768 109.689 54.7691C110.153 54.4614 110.307 53.9999 110.617 53.5384C110.771 53.0768 110.771 52.6153 110.617 51.9999C110.617 51.5384 110.307 51.0768 109.998 50.6153C109.689 50.1537 109.225 49.9999 108.762 49.6922C108.298 49.5384 107.679 49.5384 107.216 49.6922C106.597 49.6922 106.134 49.9999 105.824 50.3076C105.515 50.6153 105.206 51.0768 104.897 51.5383C104.742 51.9999 104.742 52.4614 104.897 53.0768C104.897 53.5383 105.206 53.9999 105.515 54.4614Z" fill="#003F5B"/>
<path d="M112.163 63.3845C112.008 63.6922 111.699 63.9999 111.39 64.3076C111.081 64.4615 110.617 64.6153 110.153 64.6153C109.689 64.6153 109.38 64.6153 108.916 64.3076C108.607 64.1538 108.298 63.8461 108.143 63.3845C107.989 63.0768 107.834 62.6153 107.834 61.9999V59.6922H104.588V58.6153H112.472V61.9999C112.472 62.4615 112.472 62.923 112.163 63.3845ZM109.226 62.923C109.38 63.2307 109.689 63.2307 110.153 63.2307C110.617 63.2307 110.926 63.2307 111.081 62.923C111.235 62.6153 111.39 62.3076 111.39 61.8461V59.5384H108.916V61.8461C108.916 62.3076 108.916 62.6153 109.226 62.923Z" fill="#003F5B"/>
<path d="M112.009 67.6923L104.125 66.6154V65.5385L112.164 66.6154V67.6923H112.009Z" fill="#003F5B"/>
<path d="M102.424 73.9999L102.733 72.9229L105.979 73.6922L106.289 72.1537L103.815 68.9229L104.124 67.5383L106.752 70.9229C107.062 70.3076 107.371 69.846 107.834 69.6922C108.298 69.3845 108.917 69.3845 109.38 69.6922C109.844 69.6922 110.153 69.9999 110.462 70.3076C110.772 70.6153 110.926 70.9229 111.081 71.3845C111.081 71.846 111.081 72.3076 111.081 72.7691L110.153 76.1537L102.424 74.1537V73.9999ZM106.907 73.9999L109.38 74.6153L109.999 72.4614C109.999 71.9999 109.999 71.6922 109.999 71.3845C109.999 71.0768 109.535 70.9229 109.226 70.7691C108.762 70.7691 108.453 70.7691 108.144 70.7691C107.834 70.9229 107.68 71.2306 107.525 71.6922L106.907 73.846V73.9999Z" fill="#003F5B"/>
<path d="M98.5596 49.0768L96.7046 50.7691L97.1683 53.2307L94.8495 51.9999L92.6852 53.2307L93.149 50.7691L91.2939 48.923L93.922 48.6153L95.0041 46.4615L96.0862 48.7691L98.5596 49.0768Z" fill="#003F5B"/>
<path d="M96.8593 58.4614L95.6225 59.6922L95.7771 61.3845L94.2312 60.6153L92.6853 61.3845L92.9945 59.6922L91.7578 58.3076L93.6129 58.1538L94.3858 56.6153L95.1588 58.1538L96.8593 58.4614Z" fill="#003F5B"/>
<path d="M92.3759 42.4615L90.9846 43.6922L91.2937 45.5384L89.7478 44.6153L88.2019 45.3845L88.5111 43.6922L87.2744 42.4615L88.9749 42.1538L89.9024 40.6153L90.5208 42.3076L92.3759 42.4615Z" fill="#003F5B"/>
<path d="M26.8291 72.1537L28.5296 70.4614L28.0658 67.9999L30.3847 69.0768L32.5489 67.846L32.0851 70.3076L33.9402 71.9999L31.4668 72.4614L30.3847 74.7691L29.3025 72.4614L26.8291 72.1537Z" fill="#003F5B"/>
<path d="M28.0654 62.7691L29.3021 61.5383L28.993 59.6922L30.5389 60.6153L32.0848 59.6922L31.7756 61.3845L33.1669 62.6153L31.3118 62.923L30.6935 64.4614L29.7659 62.923L28.0654 62.7691Z" fill="#003F5B"/>
<path d="M33.3213 78.4614L34.558 77.2306L34.2488 75.5383L35.7947 76.3075L37.3406 75.3845L37.0314 77.2306L38.4227 78.3075L36.5677 78.6152L35.7947 80.3075L35.0218 78.7691L33.3213 78.4614Z" fill="#003F5B"/>
</g>
<defs>
<clipPath id="clip0_366_750">
<rect width="124" height="123" fill="white"/>
</clipPath>
</defs>
</svg>
