<svg width="45" height="36" viewBox="0 0 45 36" fill="none" xmlns="http://www.w3.org/2000/svg">
<path d="M12.6946 27.4671L18 27.4671L18 28.6768L8.89264 28.6768L8.89264 27.5535L10.6035 27.5535C9.48022 26.966 8.71983 25.86 8.71983 24.5466C8.71983 22.6456 9.92953 21.4186 12.0897 21.4186L18 21.4186L18 22.6283L12.5045 22.6283C10.759 22.6283 9.774 23.4233 9.774 24.9095C9.774 26.3266 11.001 27.4671 12.6946 27.4671ZM18.1728 15.2252C18.1728 17.731 16.1854 19.5456 13.4377 19.5456C10.7072 19.5456 8.73711 17.731 8.73711 15.2252C8.73711 12.7021 10.7072 10.8875 13.4377 10.8875C16.1854 10.8875 18.1728 12.7021 18.1728 15.2252ZM17.1186 15.2252C17.1186 13.4452 15.7016 12.1145 13.4377 12.1145C11.2084 12.1145 9.79128 13.4452 9.79128 15.2252C9.79128 16.9879 11.2084 18.3186 13.4377 18.3186C15.7016 18.3186 17.1186 16.9879 17.1186 15.2252Z" fill="#FFF9F9"/>
<path d="M32.9169 28.4044C27.4164 28.4044 23.0753 23.9825 23.0753 18.2932C23.0753 12.6309 27.4164 8.23588 32.9169 8.23588C38.2287 8.23588 42.3271 11.7681 42.9473 16.8911H37.5546C37.1501 14.4644 35.3436 12.7927 32.9708 12.7927C30.1127 12.7927 28.3062 15.0037 28.3062 18.2932C28.3062 21.6097 30.1127 23.8476 32.9708 23.8476C35.3166 23.8476 37.1232 22.1759 37.5546 19.7223H42.9473C42.3001 24.8992 38.2287 28.4044 32.9169 28.4044Z" fill="#FFF9F9"/>
<rect x="9.19043" y="33.3252" width="33.8743" height="2.31187" fill="#FF211C"/>
</svg>
